<?xml version="1.0" encoding="UTF-8" standalone="no"?>
<svg
   xmlns:dc="http://purl.org/dc/elements/1.1/"
   xmlns:cc="http://creativecommons.org/ns#"
   xmlns:rdf="http://www.w3.org/1999/02/22-rdf-syntax-ns#"
   xmlns:svg="http://www.w3.org/2000/svg"
   xmlns="http://www.w3.org/2000/svg"
   xmlns:sodipodi="http://sodipodi.sourceforge.net/DTD/sodipodi-0.dtd"
   xmlns:inkscape="http://www.inkscape.org/namespaces/inkscape"
   width="59.689999mm"
   height="32.537399mm"
   viewBox="0 0 59.689999 32.537399"
   version="1.1"
   id="svg6136"
   inkscape:version="1.0.2 (e86c870879, 2021-01-15, custom)"
   sodipodi:docname="d-flip-flop.svg">
  <defs
     id="defs6130" />
  <sodipodi:namedview
     id="base"
     pagecolor="#ffffff"
     bordercolor="#666666"
     borderopacity="1.0"
     inkscape:pageopacity="0.0"
     inkscape:pageshadow="2"
     inkscape:zoom="5.6"
     inkscape:cx="213.33657"
     inkscape:cy="68.43014"
     inkscape:document-units="mm"
     inkscape:current-layer="layer1"
     inkscape:document-rotation="0"
     showgrid="false"
     inkscape:window-width="3840"
     inkscape:window-height="2115"
     inkscape:window-x="0"
     inkscape:window-y="45"
     inkscape:window-maximized="1" />
  <metadata
     id="metadata6133">
    <rdf:RDF>
      <cc:Work
         rdf:about="">
        <dc:format>image/svg+xml</dc:format>
        <dc:type
           rdf:resource="http://purl.org/dc/dcmitype/StillImage" />
        <dc:title></dc:title>
      </cc:Work>
    </rdf:RDF>
  </metadata>
  <g
     inkscape:label="Layer 1"
     inkscape:groupmode="layer"
     id="layer1"
     transform="translate(79.737857,394.24489)">
    <g
       style="fill:#840000;fill-opacity:0;stroke:#840000;stroke-width:0;stroke-linecap:round;stroke-linejoin:round;stroke-opacity:1"
       id="g2132"
       transform="matrix(0.00254,0,0,0.00254,-97.644857,-475.44869)">
      <g
         id="g2074" />
      <g
         style="fill:#ffffc2;fill-opacity:0;stroke:#ffffc2;stroke-width:0;stroke-linecap:round;stroke-linejoin:round;stroke-opacity:1"
         id="g2076" />
      <g
         style="fill:#ffffc2;fill-opacity:0.6;stroke:#ffffc2;stroke-width:0;stroke-linecap:round;stroke-linejoin:round;stroke-opacity:1"
         id="g2080">
        <path
           d="m 25502.6,37500 a 1500,1500 0 0 0 0,-3000 l -2.6,1500 z"
           id="path2078" />
      </g>
      <g
         style="fill:#ffffc2;fill-opacity:0;stroke:#ffffc2;stroke-width:0;stroke-linecap:round;stroke-linejoin:round;stroke-opacity:1"
         id="g2084">
        <path
           d="m 25502.6,37500 a 1500,1500 0 0 0 0,-3000"
           id="path2082" />
      </g>
      <g
         style="fill:#840000;fill-opacity:0;stroke:#840000;stroke-width:0;stroke-linecap:round;stroke-linejoin:round;stroke-opacity:1"
         id="g2086" />
      <g
         style="fill:#840000;fill-opacity:0;stroke:#840000;stroke-width:100;stroke-linecap:round;stroke-linejoin:round;stroke-opacity:1"
         id="g2090">
        <path
           d="m 25502.6,37500 a 1500,1500 0 0 0 0,-3000"
           id="path2088" />
      </g>
      <g
         style="fill:#ffffc2;fill-opacity:0;stroke:#ffffc2;stroke-width:100;stroke-linecap:round;stroke-linejoin:round;stroke-opacity:1"
         id="g2092" />
      <g
         style="fill:#ffffc2;fill-opacity:0.6;stroke:#ffffc2;stroke-width:0;stroke-linecap:round;stroke-linejoin:round;stroke-opacity:1"
         id="g2096">
        <path
           style="fill:#ffffc2;fill-opacity:0.6;fill-rule:evenodd;stroke:#ffffc2;stroke-width:0;stroke-linecap:round;stroke-linejoin:round;stroke-opacity:1"
           d="m 25500,34500 h -1500 v 3000 h 1500"
           id="path2094" />
      </g>
      <g
         style="fill:#840000;fill-opacity:0.6;stroke:#840000;stroke-width:0;stroke-linecap:round;stroke-linejoin:round;stroke-opacity:1"
         id="g2098" />
      <g
         style="fill:#840000;fill-opacity:0;stroke:#840000;stroke-width:100;stroke-linecap:round;stroke-linejoin:round;stroke-opacity:1"
         id="g2106">
        <path
           style="fill:none;fill-opacity:0;stroke:#840000;stroke-width:100;stroke-linecap:round;stroke-linejoin:round;stroke-opacity:1"
           d="m 25500,34500 h -1500 v 3000 h 1500"
           id="path2100" />
        <path
           d="m 25502.6,37500 a 1500,1500 0 0 0 0,-3000"
           id="path2102" />
        <path
           style="fill:none;fill-opacity:0;stroke:#840000;stroke-width:100;stroke-linecap:round;stroke-linejoin:round;stroke-opacity:1"
           d="m 25500,34500 h -1500 v 3000 h 1500"
           id="path2104" />
      </g>
      <g
         style="fill:#840000;fill-opacity:0;stroke:#840000;stroke-width:60;stroke-linecap:round;stroke-linejoin:round;stroke-opacity:1"
         id="g2130">
        <path
           d="M 24000,35000 H 22500"
           id="path2108" />
        <text
           x="23250"
           y="34900"
           textLength="540"
           font-size="660px"
           lengthAdjust="spacingAndGlyphs"
           text-anchor="middle"
           opacity="0"
           id="text2110">1</text>
        <path
           d="m 23390,34870 h -290"
           id="path2112" />
        <path
           d="m 23250,34870 v -500 l -50,70 -50,50 -50,20"
           id="path2114" />
        <path
           d="M 24000,37000 H 22500"
           id="path2116" />
        <text
           x="23250"
           y="36900"
           textLength="540"
           font-size="660px"
           lengthAdjust="spacingAndGlyphs"
           text-anchor="middle"
           opacity="0"
           id="text2118">2</text>
        <path
           d="m 23100,36420 30,-20 40,-30 h 120 l 50,30 20,20 30,50 v 40 l -30,80 -280,280 h 310"
           id="path2120" />
        <circle
           cx="27250"
           cy="36000"
           r="250"
           id="circle2122" />
        <path
           d="m 27500,36000 h 1000"
           id="path2124" />
        <text
           x="27750"
           y="35900"
           textLength="540"
           font-size="660px"
           lengthAdjust="spacingAndGlyphs"
           text-anchor="middle"
           opacity="0"
           id="text2126">3</text>
        <path
           d="m 27580,35370 h 310 l -170,190 h 70 l 50,30 20,20 30,50 v 120 l -30,40 -20,30 -50,20 h -140 l -50,-20 -20,-30"
           id="path2128" />
      </g>
    </g>
    <g
       style="fill:#840000;fill-opacity:0;stroke:#840000;stroke-width:0;stroke-linecap:round;stroke-linejoin:round;stroke-opacity:1"
       id="g2192"
       transform="matrix(0.00254,0,0,0.00254,-97.644857,-475.44869)">
      <g
         id="g2134" />
      <g
         style="fill:#ffffc2;fill-opacity:0;stroke:#ffffc2;stroke-width:0;stroke-linecap:round;stroke-linejoin:round;stroke-opacity:1"
         id="g2136" />
      <g
         style="fill:#ffffc2;fill-opacity:0.6;stroke:#ffffc2;stroke-width:0;stroke-linecap:round;stroke-linejoin:round;stroke-opacity:1"
         id="g2140">
        <path
           d="m 18502.6,43500 a 1500,1500 0 0 0 0,-3000 l -2.6,1500 z"
           id="path2138" />
      </g>
      <g
         style="fill:#ffffc2;fill-opacity:0;stroke:#ffffc2;stroke-width:0;stroke-linecap:round;stroke-linejoin:round;stroke-opacity:1"
         id="g2144">
        <path
           d="m 18502.6,43500 a 1500,1500 0 0 0 0,-3000"
           id="path2142" />
      </g>
      <g
         style="fill:#840000;fill-opacity:0;stroke:#840000;stroke-width:0;stroke-linecap:round;stroke-linejoin:round;stroke-opacity:1"
         id="g2146" />
      <g
         style="fill:#840000;fill-opacity:0;stroke:#840000;stroke-width:100;stroke-linecap:round;stroke-linejoin:round;stroke-opacity:1"
         id="g2150">
        <path
           d="m 18502.6,43500 a 1500,1500 0 0 0 0,-3000"
           id="path2148" />
      </g>
      <g
         style="fill:#ffffc2;fill-opacity:0;stroke:#ffffc2;stroke-width:100;stroke-linecap:round;stroke-linejoin:round;stroke-opacity:1"
         id="g2152" />
      <g
         style="fill:#ffffc2;fill-opacity:0.6;stroke:#ffffc2;stroke-width:0;stroke-linecap:round;stroke-linejoin:round;stroke-opacity:1"
         id="g2156">
        <path
           style="fill:#ffffc2;fill-opacity:0.6;fill-rule:evenodd;stroke:#ffffc2;stroke-width:0;stroke-linecap:round;stroke-linejoin:round;stroke-opacity:1"
           d="m 18500,40500 h -1500 v 3000 h 1500"
           id="path2154" />
      </g>
      <g
         style="fill:#840000;fill-opacity:0.6;stroke:#840000;stroke-width:0;stroke-linecap:round;stroke-linejoin:round;stroke-opacity:1"
         id="g2158" />
      <g
         style="fill:#840000;fill-opacity:0;stroke:#840000;stroke-width:100;stroke-linecap:round;stroke-linejoin:round;stroke-opacity:1"
         id="g2166">
        <path
           style="fill:none;fill-opacity:0;stroke:#840000;stroke-width:100;stroke-linecap:round;stroke-linejoin:round;stroke-opacity:1"
           d="m 18500,40500 h -1500 v 3000 h 1500"
           id="path2160" />
        <path
           d="m 18502.6,43500 a 1500,1500 0 0 0 0,-3000"
           id="path2162" />
        <path
           style="fill:none;fill-opacity:0;stroke:#840000;stroke-width:100;stroke-linecap:round;stroke-linejoin:round;stroke-opacity:1"
           d="m 18500,40500 h -1500 v 3000 h 1500"
           id="path2164" />
      </g>
      <g
         style="fill:#840000;fill-opacity:0;stroke:#840000;stroke-width:60;stroke-linecap:round;stroke-linejoin:round;stroke-opacity:1"
         id="g2190">
        <path
           d="M 17000,41000 H 15500"
           id="path2168" />
        <text
           x="16250"
           y="40900"
           textLength="540"
           font-size="660px"
           lengthAdjust="spacingAndGlyphs"
           text-anchor="middle"
           opacity="0"
           id="text2170">1</text>
        <path
           d="m 16390,40870 h -290"
           id="path2172" />
        <path
           d="m 16250,40870 v -500 l -50,70 -50,50 -50,20"
           id="path2174" />
        <path
           d="M 17000,43000 H 15500"
           id="path2176" />
        <text
           x="16250"
           y="42900"
           textLength="540"
           font-size="660px"
           lengthAdjust="spacingAndGlyphs"
           text-anchor="middle"
           opacity="0"
           id="text2178">2</text>
        <path
           d="m 16100,42420 30,-20 40,-30 h 120 l 50,30 20,20 30,50 v 40 l -30,80 -280,280 h 310"
           id="path2180" />
        <circle
           cx="20250"
           cy="42000"
           r="250"
           id="circle2182" />
        <path
           d="m 20500,42000 h 1000"
           id="path2184" />
        <text
           x="20750"
           y="41900"
           textLength="540"
           font-size="660px"
           lengthAdjust="spacingAndGlyphs"
           text-anchor="middle"
           opacity="0"
           id="text2186">3</text>
        <path
           d="m 20580,41370 h 310 l -170,190 h 70 l 50,30 20,20 30,50 v 120 l -30,40 -20,30 -50,20 h -140 l -50,-20 -20,-30"
           id="path2188" />
      </g>
    </g>
    <g
       style="fill:#840000;fill-opacity:0;stroke:#840000;stroke-width:0;stroke-linecap:round;stroke-linejoin:round;stroke-opacity:1"
       id="g2252"
       transform="matrix(0.00254,0,0,0.00254,-97.644857,-475.44869)">
      <g
         id="g2194" />
      <g
         style="fill:#ffffc2;fill-opacity:0;stroke:#ffffc2;stroke-width:0;stroke-linecap:round;stroke-linejoin:round;stroke-opacity:1"
         id="g2196" />
      <g
         style="fill:#ffffc2;fill-opacity:0.6;stroke:#ffffc2;stroke-width:0;stroke-linecap:round;stroke-linejoin:round;stroke-opacity:1"
         id="g2200">
        <path
           d="m 18502.6,36500 a 1500,1500 0 0 0 0,-3000 l -2.6,1500 z"
           id="path2198" />
      </g>
      <g
         style="fill:#ffffc2;fill-opacity:0;stroke:#ffffc2;stroke-width:0;stroke-linecap:round;stroke-linejoin:round;stroke-opacity:1"
         id="g2204">
        <path
           d="m 18502.6,36500 a 1500,1500 0 0 0 0,-3000"
           id="path2202" />
      </g>
      <g
         style="fill:#840000;fill-opacity:0;stroke:#840000;stroke-width:0;stroke-linecap:round;stroke-linejoin:round;stroke-opacity:1"
         id="g2206" />
      <g
         style="fill:#840000;fill-opacity:0;stroke:#840000;stroke-width:100;stroke-linecap:round;stroke-linejoin:round;stroke-opacity:1"
         id="g2210">
        <path
           d="m 18502.6,36500 a 1500,1500 0 0 0 0,-3000"
           id="path2208" />
      </g>
      <g
         style="fill:#ffffc2;fill-opacity:0;stroke:#ffffc2;stroke-width:100;stroke-linecap:round;stroke-linejoin:round;stroke-opacity:1"
         id="g2212" />
      <g
         style="fill:#ffffc2;fill-opacity:0.6;stroke:#ffffc2;stroke-width:0;stroke-linecap:round;stroke-linejoin:round;stroke-opacity:1"
         id="g2216">
        <path
           style="fill:#ffffc2;fill-opacity:0.6;fill-rule:evenodd;stroke:#ffffc2;stroke-width:0;stroke-linecap:round;stroke-linejoin:round;stroke-opacity:1"
           d="m 18500,33500 h -1500 v 3000 h 1500"
           id="path2214" />
      </g>
      <g
         style="fill:#840000;fill-opacity:0.6;stroke:#840000;stroke-width:0;stroke-linecap:round;stroke-linejoin:round;stroke-opacity:1"
         id="g2218" />
      <g
         style="fill:#840000;fill-opacity:0;stroke:#840000;stroke-width:100;stroke-linecap:round;stroke-linejoin:round;stroke-opacity:1"
         id="g2226">
        <path
           style="fill:none;fill-opacity:0;stroke:#840000;stroke-width:100;stroke-linecap:round;stroke-linejoin:round;stroke-opacity:1"
           d="m 18500,33500 h -1500 v 3000 h 1500"
           id="path2220" />
        <path
           d="m 18502.6,36500 a 1500,1500 0 0 0 0,-3000"
           id="path2222" />
        <path
           style="fill:none;fill-opacity:0;stroke:#840000;stroke-width:100;stroke-linecap:round;stroke-linejoin:round;stroke-opacity:1"
           d="m 18500,33500 h -1500 v 3000 h 1500"
           id="path2224" />
      </g>
      <g
         style="fill:#840000;fill-opacity:0;stroke:#840000;stroke-width:60;stroke-linecap:round;stroke-linejoin:round;stroke-opacity:1"
         id="g2250">
        <path
           d="M 17000,34000 H 15500"
           id="path2228" />
        <text
           x="16250"
           y="33900"
           textLength="540"
           font-size="660px"
           lengthAdjust="spacingAndGlyphs"
           text-anchor="middle"
           opacity="0"
           id="text2230">1</text>
        <path
           d="m 16390,33870 h -290"
           id="path2232" />
        <path
           d="m 16250,33870 v -500 l -50,70 -50,50 -50,20"
           id="path2234" />
        <path
           d="M 17000,36000 H 15500"
           id="path2236" />
        <text
           x="16250"
           y="35900"
           textLength="540"
           font-size="660px"
           lengthAdjust="spacingAndGlyphs"
           text-anchor="middle"
           opacity="0"
           id="text2238">2</text>
        <path
           d="m 16100,35420 30,-20 40,-30 h 120 l 50,30 20,20 30,50 v 40 l -30,80 -280,280 h 310"
           id="path2240" />
        <circle
           cx="20250"
           cy="35000"
           r="250"
           id="circle2242" />
        <path
           d="m 20500,35000 h 1000"
           id="path2244" />
        <text
           x="20750"
           y="34900"
           textLength="540"
           font-size="660px"
           lengthAdjust="spacingAndGlyphs"
           text-anchor="middle"
           opacity="0"
           id="text2246">3</text>
        <path
           d="m 20580,34370 h 310 l -170,190 h 70 l 50,30 20,20 30,50 v 120 l -30,40 -20,30 -50,20 h -140 l -50,-20 -20,-30"
           id="path2248" />
      </g>
    </g>
    <g
       style="fill:#840000;fill-opacity:0;stroke:#840000;stroke-width:0;stroke-linecap:round;stroke-linejoin:round;stroke-opacity:1"
       id="g2312"
       transform="matrix(0.00254,0,0,0.00254,-97.644857,-475.44869)">
      <g
         id="g2254" />
      <g
         style="fill:#ffffc2;fill-opacity:0;stroke:#ffffc2;stroke-width:0;stroke-linecap:round;stroke-linejoin:round;stroke-opacity:1"
         id="g2256" />
      <g
         style="fill:#ffffc2;fill-opacity:0.6;stroke:#ffffc2;stroke-width:0;stroke-linecap:round;stroke-linejoin:round;stroke-opacity:1"
         id="g2260">
        <path
           d="m 25502.6,42500 a 1500,1500 0 0 0 0,-3000 l -2.6,1500 z"
           id="path2258" />
      </g>
      <g
         style="fill:#ffffc2;fill-opacity:0;stroke:#ffffc2;stroke-width:0;stroke-linecap:round;stroke-linejoin:round;stroke-opacity:1"
         id="g2264">
        <path
           d="m 25502.6,42500 a 1500,1500 0 0 0 0,-3000"
           id="path2262" />
      </g>
      <g
         style="fill:#840000;fill-opacity:0;stroke:#840000;stroke-width:0;stroke-linecap:round;stroke-linejoin:round;stroke-opacity:1"
         id="g2266" />
      <g
         style="fill:#840000;fill-opacity:0;stroke:#840000;stroke-width:100;stroke-linecap:round;stroke-linejoin:round;stroke-opacity:1"
         id="g2270">
        <path
           d="m 25502.6,42500 a 1500,1500 0 0 0 0,-3000"
           id="path2268" />
      </g>
      <g
         style="fill:#ffffc2;fill-opacity:0;stroke:#ffffc2;stroke-width:100;stroke-linecap:round;stroke-linejoin:round;stroke-opacity:1"
         id="g2272" />
      <g
         style="fill:#ffffc2;fill-opacity:0.6;stroke:#ffffc2;stroke-width:0;stroke-linecap:round;stroke-linejoin:round;stroke-opacity:1"
         id="g2276">
        <path
           style="fill:#ffffc2;fill-opacity:0.6;fill-rule:evenodd;stroke:#ffffc2;stroke-width:0;stroke-linecap:round;stroke-linejoin:round;stroke-opacity:1"
           d="m 25500,39500 h -1500 v 3000 h 1500"
           id="path2274" />
      </g>
      <g
         style="fill:#840000;fill-opacity:0.6;stroke:#840000;stroke-width:0;stroke-linecap:round;stroke-linejoin:round;stroke-opacity:1"
         id="g2278" />
      <g
         style="fill:#840000;fill-opacity:0;stroke:#840000;stroke-width:100;stroke-linecap:round;stroke-linejoin:round;stroke-opacity:1"
         id="g2286">
        <path
           style="fill:none;fill-opacity:0;stroke:#840000;stroke-width:100;stroke-linecap:round;stroke-linejoin:round;stroke-opacity:1"
           d="m 25500,39500 h -1500 v 3000 h 1500"
           id="path2280" />
        <path
           d="m 25502.6,42500 a 1500,1500 0 0 0 0,-3000"
           id="path2282" />
        <path
           style="fill:none;fill-opacity:0;stroke:#840000;stroke-width:100;stroke-linecap:round;stroke-linejoin:round;stroke-opacity:1"
           d="m 25500,39500 h -1500 v 3000 h 1500"
           id="path2284" />
      </g>
      <g
         style="fill:#840000;fill-opacity:0;stroke:#840000;stroke-width:60;stroke-linecap:round;stroke-linejoin:round;stroke-opacity:1"
         id="g2310">
        <path
           d="M 24000,40000 H 22500"
           id="path2288" />
        <text
           x="23250"
           y="39900"
           textLength="540"
           font-size="660px"
           lengthAdjust="spacingAndGlyphs"
           text-anchor="middle"
           opacity="0"
           id="text2290">1</text>
        <path
           d="m 23390,39870 h -290"
           id="path2292" />
        <path
           d="m 23250,39870 v -500 l -50,70 -50,50 -50,20"
           id="path2294" />
        <path
           d="M 24000,42000 H 22500"
           id="path2296" />
        <text
           x="23250"
           y="41900"
           textLength="540"
           font-size="660px"
           lengthAdjust="spacingAndGlyphs"
           text-anchor="middle"
           opacity="0"
           id="text2298">2</text>
        <path
           d="m 23100,41420 30,-20 40,-30 h 120 l 50,30 20,20 30,50 v 40 l -30,80 -280,280 h 310"
           id="path2300" />
        <circle
           cx="27250"
           cy="41000"
           r="250"
           id="circle2302" />
        <path
           d="m 27500,41000 h 1000"
           id="path2304" />
        <text
           x="27750"
           y="40900"
           textLength="540"
           font-size="660px"
           lengthAdjust="spacingAndGlyphs"
           text-anchor="middle"
           opacity="0"
           id="text2306">3</text>
        <path
           d="m 27580,40370 h 310 l -170,190 h 70 l 50,30 20,20 30,50 v 120 l -30,40 -20,30 -50,20 h -140 l -50,-20 -20,-30"
           id="path2308" />
      </g>
    </g>
    <g
       style="fill:#840000;fill-opacity:0;stroke:#840000;stroke-width:0;stroke-linecap:round;stroke-linejoin:round;stroke-opacity:1"
       id="g2372"
       transform="matrix(0.00254,0,0,0.00254,-97.644857,-475.44869)">
      <g
         id="g2314" />
      <g
         style="fill:#ffffc2;fill-opacity:0;stroke:#ffffc2;stroke-width:0;stroke-linecap:round;stroke-linejoin:round;stroke-opacity:1"
         id="g2316" />
      <g
         style="fill:#ffffc2;fill-opacity:0.6;stroke:#ffffc2;stroke-width:0;stroke-linecap:round;stroke-linejoin:round;stroke-opacity:1"
         id="g2320">
        <path
           d="m 12502.6,44500 a 1500,1500 0 0 0 0,-3000 l -2.6,1500 z"
           id="path2318" />
      </g>
      <g
         style="fill:#ffffc2;fill-opacity:0;stroke:#ffffc2;stroke-width:0;stroke-linecap:round;stroke-linejoin:round;stroke-opacity:1"
         id="g2324">
        <path
           d="m 12502.6,44500 a 1500,1500 0 0 0 0,-3000"
           id="path2322" />
      </g>
      <g
         style="fill:#840000;fill-opacity:0;stroke:#840000;stroke-width:0;stroke-linecap:round;stroke-linejoin:round;stroke-opacity:1"
         id="g2326" />
      <g
         style="fill:#840000;fill-opacity:0;stroke:#840000;stroke-width:100;stroke-linecap:round;stroke-linejoin:round;stroke-opacity:1"
         id="g2330">
        <path
           d="m 12502.6,44500 a 1500,1500 0 0 0 0,-3000"
           id="path2328" />
      </g>
      <g
         style="fill:#ffffc2;fill-opacity:0;stroke:#ffffc2;stroke-width:100;stroke-linecap:round;stroke-linejoin:round;stroke-opacity:1"
         id="g2332" />
      <g
         style="fill:#ffffc2;fill-opacity:0.6;stroke:#ffffc2;stroke-width:0;stroke-linecap:round;stroke-linejoin:round;stroke-opacity:1"
         id="g2336">
        <path
           style="fill:#ffffc2;fill-opacity:0.6;fill-rule:evenodd;stroke:#ffffc2;stroke-width:0;stroke-linecap:round;stroke-linejoin:round;stroke-opacity:1"
           d="m 12500,41500 h -1500 v 3000 h 1500"
           id="path2334" />
      </g>
      <g
         style="fill:#840000;fill-opacity:0.6;stroke:#840000;stroke-width:0;stroke-linecap:round;stroke-linejoin:round;stroke-opacity:1"
         id="g2338" />
      <g
         style="fill:#840000;fill-opacity:0;stroke:#840000;stroke-width:100;stroke-linecap:round;stroke-linejoin:round;stroke-opacity:1"
         id="g2346">
        <path
           style="fill:none;fill-opacity:0;stroke:#840000;stroke-width:100;stroke-linecap:round;stroke-linejoin:round;stroke-opacity:1"
           d="m 12500,41500 h -1500 v 3000 h 1500"
           id="path2340" />
        <path
           d="m 12502.6,44500 a 1500,1500 0 0 0 0,-3000"
           id="path2342" />
        <path
           style="fill:none;fill-opacity:0;stroke:#840000;stroke-width:100;stroke-linecap:round;stroke-linejoin:round;stroke-opacity:1"
           d="m 12500,41500 h -1500 v 3000 h 1500"
           id="path2344" />
      </g>
      <g
         style="fill:#840000;fill-opacity:0;stroke:#840000;stroke-width:60;stroke-linecap:round;stroke-linejoin:round;stroke-opacity:1"
         id="g2370">
        <path
           d="M 11000,42000 H 9500"
           id="path2348" />
        <text
           x="10250"
           y="41900"
           textLength="540"
           font-size="660px"
           lengthAdjust="spacingAndGlyphs"
           text-anchor="middle"
           opacity="0"
           id="text2350">1</text>
        <path
           d="m 10390,41870 h -290"
           id="path2352" />
        <path
           d="m 10250,41870 v -500 l -50,70 -50,50 -50,20"
           id="path2354" />
        <path
           d="M 11000,44000 H 9500"
           id="path2356" />
        <text
           x="10250"
           y="43900"
           textLength="540"
           font-size="660px"
           lengthAdjust="spacingAndGlyphs"
           text-anchor="middle"
           opacity="0"
           id="text2358">2</text>
        <path
           d="m 10100,43420 30,-20 40,-30 h 120 l 50,30 20,20 30,50 v 40 l -30,80 -280,280 h 310"
           id="path2360" />
        <circle
           cx="14250"
           cy="43000"
           r="250"
           id="circle2362" />
        <path
           d="m 14500,43000 h 1000"
           id="path2364" />
        <text
           x="14750"
           y="42900"
           textLength="540"
           font-size="660px"
           lengthAdjust="spacingAndGlyphs"
           text-anchor="middle"
           opacity="0"
           id="text2366">3</text>
        <path
           d="m 14580,42370 h 310 l -170,190 h 70 l 50,30 20,20 30,50 v 120 l -30,40 -20,30 -50,20 h -140 l -50,-20 -20,-30"
           id="path2368" />
      </g>
    </g>
    <g
       style="fill:#0000c2;fill-opacity:0;stroke:#0000c2;stroke-width:60;stroke-linecap:round;stroke-linejoin:round;stroke-dasharray:150, 150;stroke-opacity:1"
       id="g2574"
       transform="matrix(0.00254,0,0,0.00254,-97.644857,-475.44869)">
      <path
         d="M 29500,44750 V 32000"
         id="path2572" />
    </g>
    <g
       style="fill:#0000c2;fill-opacity:0;stroke:#0000c2;stroke-width:60;stroke-linecap:round;stroke-linejoin:round;stroke-dasharray:150, 150;stroke-opacity:1"
       id="g2580"
       transform="matrix(0.00254,0,0,0.00254,-97.644857,-475.44869)">
      <path
         d="M 9000,44750 H 29500"
         id="path2578" />
    </g>
    <g
       style="fill:#0000c2;fill-opacity:0;stroke:#0000c2;stroke-width:60;stroke-linecap:round;stroke-linejoin:round;stroke-dasharray:150, 150;stroke-opacity:1"
       id="g2586"
       transform="matrix(0.00254,0,0,0.00254,-97.644857,-475.44869)">
      <path
         d="M 9000,32000 V 44750"
         id="path2584" />
    </g>
    <g
       style="fill:#0000c2;fill-opacity:0;stroke:#0000c2;stroke-width:60;stroke-linecap:round;stroke-linejoin:round;stroke-dasharray:150, 150;stroke-opacity:1"
       id="g2592"
       transform="matrix(0.00254,0,0,0.00254,-97.644857,-475.44869)">
      <path
         d="M 29250,44000 H 21000"
         id="path2590" />
    </g>
    <g
       style="fill:#0000c2;fill-opacity:0;stroke:#0000c2;stroke-width:60;stroke-linecap:round;stroke-linejoin:round;stroke-dasharray:150, 150;stroke-opacity:1"
       id="g2598"
       transform="matrix(0.00254,0,0,0.00254,-97.644857,-475.44869)">
      <path
         d="M 29250,32750 H 21000"
         id="path2596" />
    </g>
    <g
       style="fill:#0000c2;fill-opacity:0;stroke:#0000c2;stroke-width:60;stroke-linecap:round;stroke-linejoin:round;stroke-dasharray:150, 150;stroke-opacity:1"
       id="g2604"
       transform="matrix(0.00254,0,0,0.00254,-97.644857,-475.44869)">
      <path
         d="M 29250,44000 V 32750"
         id="path2602" />
    </g>
    <g
       style="fill:#0000c2;fill-opacity:0;stroke:#0000c2;stroke-width:60;stroke-linecap:round;stroke-linejoin:round;stroke-dasharray:150, 150;stroke-opacity:1"
       id="g2610"
       transform="matrix(0.00254,0,0,0.00254,-97.644857,-475.44869)">
      <path
         d="M 21000,32750 V 44000"
         id="path2608" />
    </g>
    <g
       style="fill:#0000c2;fill-opacity:0;stroke:#0000c2;stroke-width:60;stroke-linecap:round;stroke-linejoin:round;stroke-dasharray:150, 150;stroke-opacity:1"
       id="g2616"
       transform="matrix(0.00254,0,0,0.00254,-97.644857,-475.44869)">
      <path
         d="M 29500,32000 H 9000"
         id="path2614" />
    </g>
    <path
       d="m -40.494857,-373.84869 h -2.54"
       id="path2620"
       style="fill:#008400;fill-opacity:0;stroke:#008400;stroke-width:0.1524;stroke-linecap:round;stroke-linejoin:round;stroke-opacity:1" />
    <path
       d="m -23.984857,-371.30869 h 1.27"
       id="path2622"
       style="fill:#008400;fill-opacity:0;stroke:#008400;stroke-width:0.1524;stroke-linecap:round;stroke-linejoin:round;stroke-opacity:1" />
    <path
       d="m -73.514857,-363.68869 v -5.08"
       id="path2624"
       style="fill:#008400;fill-opacity:0;stroke:#008400;stroke-width:0.1524;stroke-linecap:round;stroke-linejoin:round;stroke-opacity:1" />
    <path
       d="m -43.034857,-373.84869 v -1.905"
       id="path2626"
       style="fill:#008400;fill-opacity:0;stroke:#008400;stroke-width:0.1524;stroke-linecap:round;stroke-linejoin:round;stroke-opacity:1" />
    <path
       d="m -60.179857,-384.00869 h 1.905"
       id="path2628"
       style="fill:#008400;fill-opacity:0;stroke:#008400;stroke-width:0.1524;stroke-linecap:round;stroke-linejoin:round;stroke-opacity:1" />
    <path
       d="m -58.274857,-371.30869 h -1.905"
       id="path2630"
       style="fill:#008400;fill-opacity:0;stroke:#008400;stroke-width:0.1524;stroke-linecap:round;stroke-linejoin:round;stroke-opacity:1" />
    <path
       d="m -23.984857,-381.46869 v -2.54"
       id="path2632"
       style="fill:#008400;fill-opacity:0;stroke:#008400;stroke-width:0.1524;stroke-linecap:round;stroke-linejoin:round;stroke-opacity:1" />
    <path
       d="m -23.984857,-384.00869 h 1.27"
       id="path2634"
       style="fill:#008400;fill-opacity:0;stroke:#008400;stroke-width:0.1524;stroke-linecap:round;stroke-linejoin:round;stroke-opacity:1" />
    <path
       d="m -73.514857,-368.76869 v -20.32"
       id="path2636"
       style="fill:#008400;fill-opacity:0;stroke:#008400;stroke-width:0.1524;stroke-linecap:round;stroke-linejoin:round;stroke-opacity:1" />
    <path
       d="m -73.514857,-389.08869 h -1.905"
       id="path2638"
       style="fill:#008400;fill-opacity:0;stroke:#008400;stroke-width:0.1524;stroke-linecap:round;stroke-linejoin:round;stroke-opacity:1" />
    <path
       d="m -58.274857,-389.08869 h -15.24"
       id="path2640"
       style="fill:#008400;fill-opacity:0;stroke:#008400;stroke-width:0.1524;stroke-linecap:round;stroke-linejoin:round;stroke-opacity:1" />
    <path
       d="m -60.179857,-384.00869 v 6.35"
       id="path2642"
       style="fill:#008400;fill-opacity:0;stroke:#008400;stroke-width:0.1524;stroke-linecap:round;stroke-linejoin:round;stroke-opacity:1" />
    <path
       d="m -75.419857,-377.65869 h 15.24"
       id="path2644"
       style="fill:#008400;fill-opacity:0;stroke:#008400;stroke-width:0.1524;stroke-linecap:round;stroke-linejoin:round;stroke-opacity:1" />
    <path
       d="m -60.179857,-377.65869 v 6.35"
       id="path2646"
       style="fill:#008400;fill-opacity:0;stroke:#008400;stroke-width:0.1524;stroke-linecap:round;stroke-linejoin:round;stroke-opacity:1" />
    <path
       d="m -43.034857,-375.75369 19.05,-5.715"
       id="path2648"
       style="fill:#008400;fill-opacity:0;stroke:#008400;stroke-width:0.1524;stroke-linecap:round;stroke-linejoin:round;stroke-opacity:1" />
    <path
       d="m -43.034857,-379.56369 19.05,4.445"
       id="path2650"
       style="fill:#008400;fill-opacity:0;stroke:#008400;stroke-width:0.1524;stroke-linecap:round;stroke-linejoin:round;stroke-opacity:1" />
    <path
       d="m -23.984857,-375.11869 v 3.81"
       id="path2652"
       style="fill:#008400;fill-opacity:0;stroke:#008400;stroke-width:0.1524;stroke-linecap:round;stroke-linejoin:round;stroke-opacity:1" />
    <path
       d="m -43.034857,-381.46869 v 1.905"
       id="path2672"
       style="fill:#008400;fill-opacity:0;stroke:#008400;stroke-width:0.1524;stroke-linecap:round;stroke-linejoin:round;stroke-opacity:1" />
    <path
       d="m -40.494857,-381.46869 h -2.54"
       id="path2680"
       style="fill:#008400;fill-opacity:0;stroke:#008400;stroke-width:0.1524;stroke-linecap:round;stroke-linejoin:round;stroke-opacity:1" />
    <path
       d="m -25.254857,-371.30869 h 1.27"
       id="path2682"
       style="fill:#008400;fill-opacity:0;stroke:#008400;stroke-width:0.1524;stroke-linecap:round;stroke-linejoin:round;stroke-opacity:1" />
    <path
       d="m -25.254857,-384.00869 h 1.27"
       id="path2684"
       style="fill:#008400;fill-opacity:0;stroke:#008400;stroke-width:0.1524;stroke-linecap:round;stroke-linejoin:round;stroke-opacity:1" />
    <path
       d="m -40.494857,-386.54869 h -2.54"
       id="path2686"
       style="fill:#008400;fill-opacity:0;stroke:#008400;stroke-width:0.1524;stroke-linecap:round;stroke-linejoin:round;stroke-opacity:1" />
    <path
       d="m -43.034857,-368.76869 h 2.54"
       id="path2688"
       style="fill:#008400;fill-opacity:0;stroke:#008400;stroke-width:0.1524;stroke-linecap:round;stroke-linejoin:round;stroke-opacity:1" />
    <g
       style="fill:#840000;fill-opacity:0;stroke:#840000;stroke-width:60;stroke-linecap:round;stroke-linejoin:round;stroke-opacity:1"
       id="g2696"
       transform="matrix(0.00254,0,0,0.00254,-97.644857,-475.44869)">
      <text
         x="8440"
         y="34250"
         textLength="560"
         font-size="660px"
         lengthAdjust="spacingAndGlyphs"
         text-anchor="end"
         opacity="0"
         id="text2692">D</text>
      <path
         d="m 8020,34220 v -500 h 120 l 70,30 50,40 30,50 20,100 v 70 l -20,90 -30,50 -50,50 -70,20 h -120"
         id="path2694" />
    </g>
    <g
       style="fill:#840000;fill-opacity:0;stroke:#840000;stroke-width:100;stroke-linecap:round;stroke-linejoin:round;stroke-opacity:1"
       id="g2700"
       transform="matrix(0.00254,0,0,0.00254,-97.644857,-475.44869)">
      <path
         style="fill:none;fill-opacity:0;stroke:#840000;stroke-width:100;stroke-linecap:round;stroke-linejoin:round;stroke-opacity:1"
         d="m 8750,34000 -250,-440 h -730 v 440 440 h 730 z"
         id="path2698" />
    </g>
    <g
       style="fill:#840000;fill-opacity:0;stroke:#840000;stroke-width:60;stroke-linecap:round;stroke-linejoin:round;stroke-opacity:1"
       id="g2710"
       transform="matrix(0.00254,0,0,0.00254,-97.644857,-475.44869)">
      <text
         x="29810"
         y="41250"
         textLength="580"
         font-size="660px"
         lengthAdjust="spacingAndGlyphs"
         text-anchor="start"
         opacity="0"
         id="text2702">~Q</text>
      <path
         d="m 29840,40580 h 520"
         id="path2704" />
      <path
         d="m 30290,41270 -50,-20 -50,-50 -70,-70 -50,-30 h -40"
         id="path2706" />
      <path
         d="m 30050,41220 -50,-20 -50,-50 -20,-100 v -160 l 20,-100 50,-40 50,-30 h 90 l 50,30 50,40 20,100 v 160 l -20,100 -50,50 -50,20 h -90"
         id="path2708" />
    </g>
    <g
       style="fill:#840000;fill-opacity:0;stroke:#840000;stroke-width:100;stroke-linecap:round;stroke-linejoin:round;stroke-opacity:1"
       id="g2714"
       transform="matrix(0.00254,0,0,0.00254,-97.644857,-475.44869)">
      <path
         style="fill:none;fill-opacity:0;stroke:#840000;stroke-width:100;stroke-linecap:round;stroke-linejoin:round;stroke-opacity:1"
         d="m 29500,41000 250,610 h 750 v -610 -610 h -750 z"
         id="path2712" />
    </g>
    <g
       style="fill:#840000;fill-opacity:0;stroke:#840000;stroke-width:60;stroke-linecap:round;stroke-linejoin:round;stroke-opacity:1"
       id="g2728"
       transform="matrix(0.00254,0,0,0.00254,-97.644857,-475.44869)">
      <text
         x="8440"
         y="38750"
         textLength="1230"
         font-size="660px"
         lengthAdjust="spacingAndGlyphs"
         text-anchor="end"
         opacity="0"
         id="text2716">Clk</text>
      <path
         d="m 7640,38670 -20,30 -70,20 h -50 l -70,-20 -50,-50 -20,-50 -30,-90 v -70 l 30,-100 20,-50 50,-40 70,-30 h 50 l 70,30 20,20"
         id="path2718" />
      <path
         d="m 7930,38720 -50,-20 -20,-50 v -430"
         id="path2720" />
      <path
         d="m 8120,38720 v -500"
         id="path2722" />
      <path
         d="m 8170,38530 140,190"
         id="path2724" />
      <path
         d="m 8310,38390 -190,190"
         id="path2726" />
    </g>
    <g
       style="fill:#840000;fill-opacity:0;stroke:#840000;stroke-width:100;stroke-linecap:round;stroke-linejoin:round;stroke-opacity:1"
       id="g2732"
       transform="matrix(0.00254,0,0,0.00254,-97.644857,-475.44869)">
      <path
         style="fill:none;fill-opacity:0;stroke:#840000;stroke-width:100;stroke-linecap:round;stroke-linejoin:round;stroke-opacity:1"
         d="m 8750,38500 -250,-440 H 7100 v 440 440 h 1400 z"
         id="path2730" />
    </g>
    <g
       style="fill:#840000;fill-opacity:0;stroke:#840000;stroke-width:60;stroke-linecap:round;stroke-linejoin:round;stroke-opacity:1"
       id="g2778"
       transform="matrix(0.00254,0,0,0.00254,-97.644857,-475.44869)">
      <text
         x="29810"
         y="36250"
         textLength="580"
         font-size="660px"
         lengthAdjust="spacingAndGlyphs"
         text-anchor="start"
         opacity="0"
         id="text2772">Q</text>
      <path
         d="m 30290,36270 -50,-20 -50,-50 -70,-70 -50,-30 h -40"
         id="path2774" />
      <path
         d="m 30050,36220 -50,-20 -50,-50 -20,-100 v -160 l 20,-100 50,-40 50,-30 h 90 l 50,30 50,40 20,100 v 160 l -20,100 -50,50 -50,20 h -90"
         id="path2776" />
    </g>
    <g
       style="fill:#840000;fill-opacity:0;stroke:#840000;stroke-width:100;stroke-linecap:round;stroke-linejoin:round;stroke-opacity:1"
       id="g2782"
       transform="matrix(0.00254,0,0,0.00254,-97.644857,-475.44869)">
      <path
         style="fill:none;fill-opacity:0;stroke:#840000;stroke-width:100;stroke-linecap:round;stroke-linejoin:round;stroke-opacity:1"
         d="m 29500,36000 250,440 h 750 v -440 -440 h -750 z"
         id="path2780" />
    </g>
    <g
       style="fill:#0000c2;fill-opacity:0;stroke:#0000c2;stroke-width:60;stroke-linecap:round;stroke-linejoin:round;stroke-opacity:1"
       id="g2856"
       transform="matrix(0.00254,0,0,0.00254,-97.644857,-475.44869)">
      <text
         x="23250"
         y="33650"
         textLength="3540"
         font-size="660px"
         lengthAdjust="spacingAndGlyphs"
         text-anchor="start"
         opacity="0"
         id="text2798">SR-latch</text>
      <path
         d="m 23370,33600 70,20 h 120 l 50,-20 20,-30 30,-40 v -50 l -30,-50 -20,-20 -50,-30 -90,-20 -50,-20 -30,-30 -20,-50 v -40 l 20,-50 30,-20 50,-30 h 110 l 80,30"
         id="path2800" />
      <path
         d="m 24160,33620 -170,-240"
         id="path2802" />
      <path
         d="m 23870,33620 v -500 h 190 l 50,30 20,20 30,50 v 70 l -30,50 -20,20 -50,20 h -190"
         id="path2804" />
      <path
         d="m 24370,33430 h 380"
         id="path2806" />
      <path
         d="m 25060,33620 -50,-20 -20,-50 v -430"
         id="path2808" />
      <path
         d="m 25470,33620 v -260 l -30,-50 -50,-20 h -90 l -50,20"
         id="path2810" />
      <path
         d="m 25470,33600 -50,20 h -120 l -50,-20 -20,-50 v -50 l 20,-50 50,-20 h 120 l 50,-20"
         id="path2812" />
      <path
         d="m 25630,33290 h 190"
         id="path2814" />
      <path
         d="m 25700,33120 v 430 l 30,50 50,20 h 40"
         id="path2816" />
      <path
         d="m 26200,33600 -40,20 h -100 l -50,-20 -20,-30 -20,-40 v -150 l 20,-40 20,-30 50,-20 h 100 l 40,20"
         id="path2818" />
      <path
         d="m 26420,33620 v -500"
         id="path2820" />
      <path
         d="m 26630,33620 v -260 l -20,-50 -50,-20 h -70 l -50,20 -20,30"
         id="path2822" />
      <text
         x="9750"
         y="33150"
         textLength="4250"
         font-size="660px"
         lengthAdjust="spacingAndGlyphs"
         text-anchor="start"
         opacity="0"
         id="text2824">D flip-flop</text>
      <path
         d="m 9890,33120 v -500 h 120 l 70,30 50,40 30,50 20,100 v 70 l -20,90 -30,50 -50,50 -70,20 h -120"
         id="path2826" />
      <path
         d="m 10700,32790 h 190"
         id="path2828" />
      <path
         d="m 10780,33120 v -430 l 20,-40 50,-30 h 40"
         id="path2830" />
      <path
         d="m 11130,33120 -50,-20 -20,-50 v -430"
         id="path2832" />
      <path
         d="m 11320,33120 v -330"
         id="path2834" />
      <path
         d="m 11320,32620 -20,30 20,20 30,-20 -30,-30 v 50"
         id="path2836" />
      <path
         d="m 11560,32790 v 500"
         id="path2838" />
      <path
         d="m 11560,32810 50,-20 h 90 l 50,20 30,30 20,40 v 150 l -20,40 -30,30 -50,20 h -90 l -50,-20"
         id="path2840" />
      <path
         d="m 12010,32930 h 380"
         id="path2842" />
      <path
         d="m 12560,32790 h 190"
         id="path2844" />
      <path
         d="m 12630,33120 v -430 l 30,-40 40,-30 h 50"
         id="path2846" />
      <path
         d="m 12990,33120 -50,-20 -20,-50 v -430"
         id="path2848" />
      <path
         d="m 13250,33120 -50,-20 -20,-30 -20,-40 v -150 l 20,-40 20,-30 50,-20 h 70 l 50,20 20,30 30,40 v 150 l -30,40 -20,30 -50,20 h -70"
         id="path2850" />
      <path
         d="m 13630,32790 v 500"
         id="path2852" />
      <path
         d="m 13630,32810 50,-20 h 100 l 40,20 30,30 20,40 v 150 l -20,40 -30,30 -40,20 h -100 l -50,-20"
         id="path2854" />
    </g>
    <g
       style="fill:#008400;fill-opacity:1;stroke:#008400;stroke-width:100;stroke-linecap:round;stroke-linejoin:round;stroke-opacity:1"
       id="g2870"
       transform="matrix(0.00254,0,0,0.00254,-97.644857,-475.44869)">
      <circle
         cx="14750"
         cy="38500"
         r="200"
         id="circle2868" />
    </g>
    <g
       style="fill:#008400;fill-opacity:1;stroke:#008400;stroke-width:100;stroke-linecap:round;stroke-linejoin:round;stroke-opacity:1"
       id="g2882"
       transform="matrix(0.00254,0,0,0.00254,-97.644857,-475.44869)">
      <circle
         cx="29000"
         cy="36000"
         r="200"
         id="circle2880" />
    </g>
    <g
       style="fill:#008400;fill-opacity:1;stroke:#008400;stroke-width:100;stroke-linecap:round;stroke-linejoin:round;stroke-opacity:1"
       id="g2888"
       transform="matrix(0.00254,0,0,0.00254,-97.644857,-475.44869)">
      <circle
         cx="9500"
         cy="34000"
         r="200"
         id="circle2886" />
    </g>
    <g
       style="fill:#008400;fill-opacity:1;stroke:#008400;stroke-width:100;stroke-linecap:round;stroke-linejoin:round;stroke-opacity:1"
       id="g2894"
       transform="matrix(0.00254,0,0,0.00254,-97.644857,-475.44869)">
      <circle
         cx="29000"
         cy="41000"
         r="200"
         id="circle2892" />
    </g>
    <g
       style="fill:#008400;fill-opacity:1;stroke:#008400;stroke-width:100;stroke-linecap:round;stroke-linejoin:round;stroke-opacity:1"
       id="g2900"
       transform="matrix(0.00254,0,0,0.00254,-97.644857,-475.44869)">
      <circle
         cx="9500"
         cy="42000"
         r="200"
         id="circle2898" />
    </g>
  </g>
</svg>
