<?xml version="1.0" encoding="UTF-8" standalone="no"?>
<svg
   xmlns:dc="http://purl.org/dc/elements/1.1/"
   xmlns:cc="http://creativecommons.org/ns#"
   xmlns:rdf="http://www.w3.org/1999/02/22-rdf-syntax-ns#"
   xmlns:svg="http://www.w3.org/2000/svg"
   xmlns="http://www.w3.org/2000/svg"
   xmlns:sodipodi="http://sodipodi.sourceforge.net/DTD/sodipodi-0.dtd"
   xmlns:inkscape="http://www.inkscape.org/namespaces/inkscape"
   version="1.1"
   width="5.40766cm"
   height="2.28092cm"
   viewBox="0 0 21290 8979.9998"
   id="svg476"
   sodipodi:docname="mux.svg"
   inkscape:version="1.0.2 (e86c870879, 2021-01-15, custom)">
  <metadata
     id="metadata482">
    <rdf:RDF>
      <cc:Work
         rdf:about="">
        <dc:format>image/svg+xml</dc:format>
        <dc:type
           rdf:resource="http://purl.org/dc/dcmitype/StillImage" />
        <dc:title>SVG Picture created as playground.svg date 2021/05/11 15:10:08 </dc:title>
      </cc:Work>
    </rdf:RDF>
  </metadata>
  <defs
     id="defs480" />
  <sodipodi:namedview
     pagecolor="#ffffff"
     bordercolor="#666666"
     borderopacity="1"
     objecttolerance="10"
     gridtolerance="10"
     guidetolerance="10"
     inkscape:pageopacity="0"
     inkscape:pageshadow="2"
     inkscape:window-width="1920"
     inkscape:window-height="1057"
     id="namedview478"
     showgrid="false"
     inkscape:zoom="3.5049019"
     inkscape:cx="121.05199"
     inkscape:cy="64.338199"
     inkscape:window-x="1920"
     inkscape:window-y="45"
     inkscape:window-maximized="0"
     inkscape:current-layer="svg476"
     inkscape:document-rotation="0" />
  <title
     id="title2">SVG Picture created as playground.svg date 2021/05/11 15:10:08 </title>
  <desc
     id="desc4">Picture generated by Eeschema-SVG </desc>
  <g
     style="fill:#000000;fill-opacity:1;stroke:#000000;stroke-linecap:round;stroke-linejoin:round;stroke-opacity:1"
     id="g6"
     transform="translate(-1817.5395,-7824.2033)" />
  <g
     style="fill:#008484;fill-opacity:0;stroke:#008484;stroke-width:60;stroke-linecap:round;stroke-linejoin:round;stroke-opacity:1"
     id="g384"
     transform="translate(-1817.5395,-7824.2033)" />
  <g
     style="fill:#840000;fill-opacity:0;stroke:#840000;stroke-width:0;stroke-linecap:round;stroke-linejoin:round;stroke-opacity:1"
     id="g462"
     transform="translate(-1817.5395,-7824.2033)" />
  <g
     style="fill:#008400;fill-opacity:0;stroke:#008400;stroke-width:0;stroke-linecap:round;stroke-linejoin:round;stroke-opacity:1"
     id="g464"
     transform="translate(-1817.5395,-7824.2033)" />
  <g
     style="fill:#008400;fill-opacity:1;stroke:#008400;stroke-width:0;stroke-linecap:round;stroke-linejoin:round;stroke-opacity:1"
     id="g470"
     transform="translate(-1817.5395,-7824.2033)" />
  <g
     style="fill:#000000;fill-opacity:0;stroke:#000000;stroke-width:0;stroke-linecap:round;stroke-linejoin:round;stroke-opacity:1"
     id="g2072"
     transform="translate(-7510,-7570)">
    <g
       id="g2012" />
    <g
       style="fill:#840000;fill-opacity:0;stroke:#840000;stroke-width:0;stroke-linecap:round;stroke-linejoin:round;stroke-opacity:1"
       id="g2014" />
    <g
       style="fill:#ffffc2;fill-opacity:0;stroke:#ffffc2;stroke-width:0;stroke-linecap:round;stroke-linejoin:round;stroke-opacity:1"
       id="g2016" />
    <g
       style="fill:#ffffc2;fill-opacity:0.6;stroke:#ffffc2;stroke-width:0;stroke-linecap:round;stroke-linejoin:round;stroke-opacity:1"
       id="g2020">
      <path
         d="m 18002.6,15500 a 1500,1500 0 0 0 0,-3000 l -2.6,1500 z"
         id="path2018" />
    </g>
    <g
       style="fill:#ffffc2;fill-opacity:0;stroke:#ffffc2;stroke-width:0;stroke-linecap:round;stroke-linejoin:round;stroke-opacity:1"
       id="g2024">
      <path
         d="m 18002.6,15500 a 1500,1500 0 0 0 0,-3000"
         id="path2022" />
    </g>
    <g
       style="fill:#840000;fill-opacity:0;stroke:#840000;stroke-width:0;stroke-linecap:round;stroke-linejoin:round;stroke-opacity:1"
       id="g2026" />
    <g
       style="fill:#840000;fill-opacity:0;stroke:#840000;stroke-width:100;stroke-linecap:round;stroke-linejoin:round;stroke-opacity:1"
       id="g2030">
      <path
         d="m 18002.6,15500 a 1500,1500 0 0 0 0,-3000"
         id="path2028" />
    </g>
    <g
       style="fill:#ffffc2;fill-opacity:0;stroke:#ffffc2;stroke-width:100;stroke-linecap:round;stroke-linejoin:round;stroke-opacity:1"
       id="g2032" />
    <g
       style="fill:#ffffc2;fill-opacity:0.6;stroke:#ffffc2;stroke-width:0;stroke-linecap:round;stroke-linejoin:round;stroke-opacity:1"
       id="g2036">
      <path
         style="fill:#ffffc2;fill-opacity:0.6;fill-rule:evenodd;stroke:#ffffc2;stroke-width:0;stroke-linecap:round;stroke-linejoin:round;stroke-opacity:1"
         d="m 18000,12500 h -1500 v 3000 h 1500"
         id="path2034" />
    </g>
    <g
       style="fill:#840000;fill-opacity:0.6;stroke:#840000;stroke-width:0;stroke-linecap:round;stroke-linejoin:round;stroke-opacity:1"
       id="g2038" />
    <g
       style="fill:#840000;fill-opacity:0;stroke:#840000;stroke-width:100;stroke-linecap:round;stroke-linejoin:round;stroke-opacity:1"
       id="g2046">
      <path
         style="fill:none;fill-opacity:0;stroke:#840000;stroke-width:100;stroke-linecap:round;stroke-linejoin:round;stroke-opacity:1"
         d="m 18000,12500 h -1500 v 3000 h 1500"
         id="path2040" />
      <path
         d="m 18002.6,15500 a 1500,1500 0 0 0 0,-3000"
         id="path2042" />
      <path
         style="fill:none;fill-opacity:0;stroke:#840000;stroke-width:100;stroke-linecap:round;stroke-linejoin:round;stroke-opacity:1"
         d="m 18000,12500 h -1500 v 3000 h 1500"
         id="path2044" />
    </g>
    <g
       style="fill:#840000;fill-opacity:0;stroke:#840000;stroke-width:60;stroke-linecap:round;stroke-linejoin:round;stroke-opacity:1"
       id="g2070">
      <path
         d="M 16500,13000 H 15000"
         id="path2048" />
      <text
         x="15750"
         y="12900"
         textLength="540"
         font-size="660px"
         lengthAdjust="spacingAndGlyphs"
         text-anchor="middle"
         opacity="0"
         id="text2050">1</text>
      <path
         d="m 15890,12870 h -290"
         id="path2052" />
      <path
         d="m 15750,12870 v -500 l -50,70 -50,50 -50,20"
         id="path2054" />
      <path
         d="M 16500,15000 H 15000"
         id="path2056" />
      <text
         x="15750"
         y="14900"
         textLength="540"
         font-size="660px"
         lengthAdjust="spacingAndGlyphs"
         text-anchor="middle"
         opacity="0"
         id="text2058">2</text>
      <path
         d="m 15600,14420 30,-20 40,-30 h 120 l 50,30 20,20 30,50 v 40 l -30,80 -280,280 h 310"
         id="path2060" />
      <circle
         cx="19750"
         cy="14000"
         r="250"
         id="circle2062" />
      <path
         d="m 20000,14000 h 1000"
         id="path2064" />
      <text
         x="20250"
         y="13900"
         textLength="540"
         font-size="660px"
         lengthAdjust="spacingAndGlyphs"
         text-anchor="middle"
         opacity="0"
         id="text2066">3</text>
      <path
         d="m 20080,13370 h 310 l -170,190 h 70 l 50,30 20,20 30,50 v 120 l -30,40 -20,30 -50,20 h -140 l -50,-20 -20,-30"
         id="path2068" />
    </g>
  </g>
  <g
     style="fill:#840000;fill-opacity:0;stroke:#840000;stroke-width:0;stroke-linecap:round;stroke-linejoin:round;stroke-opacity:1"
     id="g2444"
     transform="translate(-7510,-7570)">
    <g
       id="g2374" />
    <g
       style="fill:#ffffc2;fill-opacity:0;stroke:#ffffc2;stroke-width:0;stroke-linecap:round;stroke-linejoin:round;stroke-opacity:1"
       id="g2376" />
    <g
       style="fill:#ffffc2;fill-opacity:0.6;stroke:#ffffc2;stroke-width:0;stroke-linecap:round;stroke-linejoin:round;stroke-opacity:1"
       id="g2380">
      <path
         d="m 24752.6,13250 a 1500,1500 0 0 0 0,-3000 l -2.6,1500 z"
         id="path2378" />
    </g>
    <g
       style="fill:#ffffc2;fill-opacity:0;stroke:#ffffc2;stroke-width:0;stroke-linecap:round;stroke-linejoin:round;stroke-opacity:1"
       id="g2384">
      <path
         d="m 24752.6,13250 a 1500,1500 0 0 0 0,-3000"
         id="path2382" />
    </g>
    <g
       style="fill:#840000;fill-opacity:0;stroke:#840000;stroke-width:0;stroke-linecap:round;stroke-linejoin:round;stroke-opacity:1"
       id="g2386" />
    <g
       style="fill:#840000;fill-opacity:0;stroke:#840000;stroke-width:100;stroke-linecap:round;stroke-linejoin:round;stroke-opacity:1"
       id="g2390">
      <path
         d="m 24752.6,13250 a 1500,1500 0 0 0 0,-3000"
         id="path2388" />
    </g>
    <g
       style="fill:#ffffc2;fill-opacity:0;stroke:#ffffc2;stroke-width:100;stroke-linecap:round;stroke-linejoin:round;stroke-opacity:1"
       id="g2392" />
    <g
       style="fill:#ffffc2;fill-opacity:0.6;stroke:#ffffc2;stroke-width:0;stroke-linecap:round;stroke-linejoin:round;stroke-opacity:1"
       id="g2396">
      <path
         style="fill:#ffffc2;fill-opacity:0.6;fill-rule:evenodd;stroke:#ffffc2;stroke-width:0;stroke-linecap:round;stroke-linejoin:round;stroke-opacity:1"
         d="m 24750,10250 h -1500 v 3000 h 1500"
         id="path2394" />
    </g>
    <g
       style="fill:#840000;fill-opacity:0.6;stroke:#840000;stroke-width:0;stroke-linecap:round;stroke-linejoin:round;stroke-opacity:1"
       id="g2398" />
    <g
       style="fill:#840000;fill-opacity:0;stroke:#840000;stroke-width:100;stroke-linecap:round;stroke-linejoin:round;stroke-opacity:1"
       id="g2406">
      <path
         style="fill:none;fill-opacity:0;stroke:#840000;stroke-width:100;stroke-linecap:round;stroke-linejoin:round;stroke-opacity:1"
         d="m 24750,10250 h -1500 v 3000 h 1500"
         id="path2400" />
      <path
         d="m 24752.6,13250 a 1500,1500 0 0 0 0,-3000"
         id="path2402" />
      <path
         style="fill:none;fill-opacity:0;stroke:#840000;stroke-width:100;stroke-linecap:round;stroke-linejoin:round;stroke-opacity:1"
         d="m 24750,10250 h -1500 v 3000 h 1500"
         id="path2404" />
    </g>
    <g
       style="fill:#840000;fill-opacity:0;stroke:#840000;stroke-width:60;stroke-linecap:round;stroke-linejoin:round;stroke-opacity:1"
       id="g2442">
      <circle
         cx="26500"
         cy="11750"
         r="250"
         id="circle2408" />
      <path
         d="m 26750,11750 h 1000"
         id="path2410" />
      <text
         x="27000"
         y="11650"
         textLength="1010"
         font-size="660px"
         lengthAdjust="spacingAndGlyphs"
         text-anchor="middle"
         opacity="0"
         id="text2412">11</text>
      <path
         d="m 26900,11620 h -290"
         id="path2414" />
      <path
         d="m 26760,11620 v -500 l -50,70 -50,50 -50,20"
         id="path2416" />
      <path
         d="m 27380,11620 h -290"
         id="path2418" />
      <path
         d="m 27230,11620 v -500 l -40,70 -50,50 -50,20"
         id="path2420" />
      <path
         d="M 23250,10750 H 21750"
         id="path2422" />
      <text
         x="22500"
         y="10650"
         textLength="1010"
         font-size="660px"
         lengthAdjust="spacingAndGlyphs"
         text-anchor="middle"
         opacity="0"
         id="text2424">12</text>
      <path
         d="m 22400,10620 h -290"
         id="path2426" />
      <path
         d="m 22260,10620 v -500 l -50,70 -50,50 -50,20"
         id="path2428" />
      <path
         d="m 22590,10170 20,-20 50,-30 h 120 l 50,30 20,20 30,50 v 40 l -30,80 -280,280 h 310"
         id="path2430" />
      <path
         d="M 23250,12750 H 21750"
         id="path2432" />
      <text
         x="22500"
         y="12650"
         textLength="1010"
         font-size="660px"
         lengthAdjust="spacingAndGlyphs"
         text-anchor="middle"
         opacity="0"
         id="text2434">13</text>
      <path
         d="m 22400,12620 h -290"
         id="path2436" />
      <path
         d="m 22260,12620 v -500 l -50,70 -50,50 -50,20"
         id="path2438" />
      <path
         d="m 22570,12120 h 310 l -170,190 h 70 l 50,30 20,20 30,50 v 120 l -30,40 -20,30 -50,20 h -140 l -50,-20 -20,-30"
         id="path2440" />
    </g>
  </g>
  <g
     style="fill:#840000;fill-opacity:0;stroke:#840000;stroke-width:0;stroke-linecap:round;stroke-linejoin:round;stroke-opacity:1"
     id="g2504"
     transform="translate(-7510,-7570)">
    <g
       id="g2446" />
    <g
       style="fill:#ffffc2;fill-opacity:0;stroke:#ffffc2;stroke-width:0;stroke-linecap:round;stroke-linejoin:round;stroke-opacity:1"
       id="g2448" />
    <g
       style="fill:#ffffc2;fill-opacity:0.6;stroke:#ffffc2;stroke-width:0;stroke-linecap:round;stroke-linejoin:round;stroke-opacity:1"
       id="g2452">
      <path
         d="m 18002.6,10750 a 1500,1500 0 0 0 0,-3000 l -2.6,1500 z"
         id="path2450" />
    </g>
    <g
       style="fill:#ffffc2;fill-opacity:0;stroke:#ffffc2;stroke-width:0;stroke-linecap:round;stroke-linejoin:round;stroke-opacity:1"
       id="g2456">
      <path
         d="m 18002.6,10750 a 1500,1500 0 0 0 0,-3000"
         id="path2454" />
    </g>
    <g
       style="fill:#840000;fill-opacity:0;stroke:#840000;stroke-width:0;stroke-linecap:round;stroke-linejoin:round;stroke-opacity:1"
       id="g2458" />
    <g
       style="fill:#840000;fill-opacity:0;stroke:#840000;stroke-width:100;stroke-linecap:round;stroke-linejoin:round;stroke-opacity:1"
       id="g2462">
      <path
         d="m 18002.6,10750 a 1500,1500 0 0 0 0,-3000"
         id="path2460" />
    </g>
    <g
       style="fill:#ffffc2;fill-opacity:0;stroke:#ffffc2;stroke-width:100;stroke-linecap:round;stroke-linejoin:round;stroke-opacity:1"
       id="g2464" />
    <g
       style="fill:#ffffc2;fill-opacity:0.6;stroke:#ffffc2;stroke-width:0;stroke-linecap:round;stroke-linejoin:round;stroke-opacity:1"
       id="g2468">
      <path
         style="fill:#ffffc2;fill-opacity:0.6;fill-rule:evenodd;stroke:#ffffc2;stroke-width:0;stroke-linecap:round;stroke-linejoin:round;stroke-opacity:1"
         d="m 18000,7750 h -1500 v 3000 h 1500"
         id="path2466" />
    </g>
    <g
       style="fill:#840000;fill-opacity:0.6;stroke:#840000;stroke-width:0;stroke-linecap:round;stroke-linejoin:round;stroke-opacity:1"
       id="g2470" />
    <g
       style="fill:#840000;fill-opacity:0;stroke:#840000;stroke-width:100;stroke-linecap:round;stroke-linejoin:round;stroke-opacity:1"
       id="g2478">
      <path
         style="fill:none;fill-opacity:0;stroke:#840000;stroke-width:100;stroke-linecap:round;stroke-linejoin:round;stroke-opacity:1"
         d="m 18000,7750 h -1500 v 3000 h 1500"
         id="path2472" />
      <path
         d="m 18002.6,10750 a 1500,1500 0 0 0 0,-3000"
         id="path2474" />
      <path
         style="fill:none;fill-opacity:0;stroke:#840000;stroke-width:100;stroke-linecap:round;stroke-linejoin:round;stroke-opacity:1"
         d="m 18000,7750 h -1500 v 3000 h 1500"
         id="path2476" />
    </g>
    <g
       style="fill:#840000;fill-opacity:0;stroke:#840000;stroke-width:60;stroke-linecap:round;stroke-linejoin:round;stroke-opacity:1"
       id="g2502">
      <path
         d="M 16500,8250 H 15000"
         id="path2480" />
      <text
         x="15750"
         y="8150"
         textLength="540"
         font-size="660px"
         lengthAdjust="spacingAndGlyphs"
         text-anchor="middle"
         opacity="0"
         id="text2482">4</text>
      <path
         d="m 15840,7790 v 330"
         id="path2484" />
      <path
         d="m 15720,7600 -120,350 h 310"
         id="path2486" />
      <path
         d="M 16500,10250 H 15000"
         id="path2488" />
      <text
         x="15750"
         y="10150"
         textLength="540"
         font-size="660px"
         lengthAdjust="spacingAndGlyphs"
         text-anchor="middle"
         opacity="0"
         id="text2490">5</text>
      <path
         d="m 15860,9620 h -230 l -30,240 30,-20 40,-30 h 120 l 50,30 20,20 30,50 v 120 l -30,40 -20,30 -50,20 h -120 l -40,-20 -30,-30"
         id="path2492" />
      <circle
         cx="19750"
         cy="9250"
         r="250"
         id="circle2494" />
      <path
         d="m 20000,9250 h 1000"
         id="path2496" />
      <text
         x="20250"
         y="9150"
         textLength="540"
         font-size="660px"
         lengthAdjust="spacingAndGlyphs"
         text-anchor="middle"
         opacity="0"
         id="text2498">6</text>
      <path
         d="m 20340,8620 h -90 l -50,30 -30,20 -40,70 -30,100 v 190 l 30,40 20,30 50,20 h 90 l 50,-20 20,-30 30,-40 v -120 l -30,-50 -20,-20 -50,-30 h -90 l -50,30 -20,20 -30,50"
         id="path2500" />
    </g>
  </g>
  <g
     style="fill:#840000;fill-opacity:0;stroke:#840000;stroke-width:0;stroke-linecap:round;stroke-linejoin:round;stroke-opacity:1"
     id="g2566"
     transform="translate(-7510,-7570)">
    <g
       id="g2506" />
    <g
       style="fill:#ffffc2;fill-opacity:0;stroke:#ffffc2;stroke-width:0;stroke-linecap:round;stroke-linejoin:round;stroke-opacity:1"
       id="g2508" />
    <g
       style="fill:#ffffc2;fill-opacity:0.6;stroke:#ffffc2;stroke-width:0;stroke-linecap:round;stroke-linejoin:round;stroke-opacity:1"
       id="g2512">
      <path
         d="m 12002.6,16500 a 1500,1500 0 0 0 0,-3000 l -2.6,1500 z"
         id="path2510" />
    </g>
    <g
       style="fill:#ffffc2;fill-opacity:0;stroke:#ffffc2;stroke-width:0;stroke-linecap:round;stroke-linejoin:round;stroke-opacity:1"
       id="g2516">
      <path
         d="m 12002.6,16500 a 1500,1500 0 0 0 0,-3000"
         id="path2514" />
    </g>
    <g
       style="fill:#840000;fill-opacity:0;stroke:#840000;stroke-width:0;stroke-linecap:round;stroke-linejoin:round;stroke-opacity:1"
       id="g2518" />
    <g
       style="fill:#840000;fill-opacity:0;stroke:#840000;stroke-width:100;stroke-linecap:round;stroke-linejoin:round;stroke-opacity:1"
       id="g2522">
      <path
         d="m 12002.6,16500 a 1500,1500 0 0 0 0,-3000"
         id="path2520" />
    </g>
    <g
       style="fill:#ffffc2;fill-opacity:0;stroke:#ffffc2;stroke-width:100;stroke-linecap:round;stroke-linejoin:round;stroke-opacity:1"
       id="g2524" />
    <g
       style="fill:#ffffc2;fill-opacity:0.6;stroke:#ffffc2;stroke-width:0;stroke-linecap:round;stroke-linejoin:round;stroke-opacity:1"
       id="g2528">
      <path
         style="fill:#ffffc2;fill-opacity:0.6;fill-rule:evenodd;stroke:#ffffc2;stroke-width:0;stroke-linecap:round;stroke-linejoin:round;stroke-opacity:1"
         d="m 12000,13500 h -1500 v 3000 h 1500"
         id="path2526" />
    </g>
    <g
       style="fill:#840000;fill-opacity:0.6;stroke:#840000;stroke-width:0;stroke-linecap:round;stroke-linejoin:round;stroke-opacity:1"
       id="g2530" />
    <g
       style="fill:#840000;fill-opacity:0;stroke:#840000;stroke-width:100;stroke-linecap:round;stroke-linejoin:round;stroke-opacity:1"
       id="g2538">
      <path
         style="fill:none;fill-opacity:0;stroke:#840000;stroke-width:100;stroke-linecap:round;stroke-linejoin:round;stroke-opacity:1"
         d="m 12000,13500 h -1500 v 3000 h 1500"
         id="path2532" />
      <path
         d="m 12002.6,16500 a 1500,1500 0 0 0 0,-3000"
         id="path2534" />
      <path
         style="fill:none;fill-opacity:0;stroke:#840000;stroke-width:100;stroke-linecap:round;stroke-linejoin:round;stroke-opacity:1"
         d="m 12000,13500 h -1500 v 3000 h 1500"
         id="path2536" />
    </g>
    <g
       style="fill:#840000;fill-opacity:0;stroke:#840000;stroke-width:60;stroke-linecap:round;stroke-linejoin:round;stroke-opacity:1"
       id="g2564">
      <path
         d="M 10500,16000 H 9000"
         id="path2540" />
      <text
         x="9750"
         y="15900"
         textLength="1010"
         font-size="660px"
         lengthAdjust="spacingAndGlyphs"
         text-anchor="middle"
         opacity="0"
         id="text2542">10</text>
      <path
         d="M 9650,15870 H 9360"
         id="path2544" />
      <path
         d="m 9510,15870 v -500 l -50,70 -50,50 -50,20"
         id="path2546" />
      <path
         d="m 9960,15370 h 50 l 40,30 30,20 20,50 30,90 v 120 l -30,100 -20,40 -30,30 -40,20 h -50 l -50,-20 -20,-30 -30,-40 -20,-100 v -120 l 20,-90 30,-50 20,-20 50,-30"
         id="path2548" />
      <circle
         cx="13750"
         cy="15000"
         r="250"
         id="circle2550" />
      <path
         d="m 14000,15000 h 1000"
         id="path2552" />
      <text
         x="14250"
         y="14900"
         textLength="540"
         font-size="660px"
         lengthAdjust="spacingAndGlyphs"
         text-anchor="middle"
         opacity="0"
         id="text2554">8</text>
      <path
         d="m 14200,14590 -50,-30 -20,-20 -30,-50 v -20 l 30,-50 20,-20 50,-30 h 90 l 50,30 20,20 30,50 v 20 l -30,50 -20,20 -50,30 h -90 l -50,20 -20,20 -30,50 v 100 l 30,40 20,30 50,20 h 90 l 50,-20 20,-30 30,-40 v -100 l -30,-50 -20,-20 -50,-20"
         id="path2556" />
      <path
         d="M 10500,14000 H 9000"
         id="path2558" />
      <text
         x="9750"
         y="13900"
         textLength="540"
         font-size="660px"
         lengthAdjust="spacingAndGlyphs"
         text-anchor="middle"
         opacity="0"
         id="text2560">9</text>
      <path
         d="m 9650,13870 h 100 l 40,-20 30,-30 40,-70 30,-90 v -190 l -30,-50 -20,-20 -50,-30 h -90 l -50,30 -20,20 -30,50 v 120 l 30,40 20,30 50,20 h 90 l 50,-20 20,-30 30,-40"
         id="path2562" />
    </g>
  </g>
  <path
     d="m 13490,1680 h 750"
     id="path2654"
     style="fill:#008400;fill-opacity:0;stroke:#008400;stroke-width:60;stroke-linecap:round;stroke-linejoin:round;stroke-opacity:1" />
  <path
     d="M 1490,6430 V 8430"
     id="path2656"
     style="fill:#008400;fill-opacity:0;stroke:#008400;stroke-width:60;stroke-linecap:round;stroke-linejoin:round;stroke-opacity:1" />
  <path
     d="M 1490,6430 V 2680"
     id="path2658"
     style="fill:#008400;fill-opacity:0;stroke:#008400;stroke-width:60;stroke-linecap:round;stroke-linejoin:round;stroke-opacity:1" />
  <path
     d="M 1490,2680 H 7490"
     id="path2660"
     style="fill:#008400;fill-opacity:0;stroke:#008400;stroke-width:60;stroke-linecap:round;stroke-linejoin:round;stroke-opacity:1" />
  <path
     d="M 7490,5430 H 6490"
     id="path2662"
     style="fill:#008400;fill-opacity:0;stroke:#008400;stroke-width:60;stroke-linecap:round;stroke-linejoin:round;stroke-opacity:1" />
  <path
     d="M 1240,1680 H 6490"
     id="path2664"
     style="fill:#008400;fill-opacity:0;stroke:#008400;stroke-width:60;stroke-linecap:round;stroke-linejoin:round;stroke-opacity:1" />
  <path
     d="M 1490,2680 H 989.99995"
     id="path2666"
     style="fill:#008400;fill-opacity:0;stroke:#008400;stroke-width:60;stroke-linecap:round;stroke-linejoin:round;stroke-opacity:1" />
  <path
     d="M 6490,1680 V 5430"
     id="path2668"
     style="fill:#008400;fill-opacity:0;stroke:#008400;stroke-width:60;stroke-linecap:round;stroke-linejoin:round;stroke-opacity:1" />
  <path
     d="M 1240,680.00005 H 7490"
     id="path2670"
     style="fill:#008400;fill-opacity:0;stroke:#008400;stroke-width:60;stroke-linecap:round;stroke-linejoin:round;stroke-opacity:1" />
  <path
     d="M 14240,1680 V 3180"
     id="path2674"
     style="fill:#008400;fill-opacity:0;stroke:#008400;stroke-width:60;stroke-linecap:round;stroke-linejoin:round;stroke-opacity:1" />
  <path
     d="m 13490,6430 h 750"
     id="path2676"
     style="fill:#008400;fill-opacity:0;stroke:#008400;stroke-width:60;stroke-linecap:round;stroke-linejoin:round;stroke-opacity:1" />
  <path
     d="M 14240,6430 V 5180"
     id="path2678"
     style="fill:#008400;fill-opacity:0;stroke:#008400;stroke-width:60;stroke-linecap:round;stroke-linejoin:round;stroke-opacity:1" />
  <g
     style="fill:#840000;fill-opacity:0;stroke:#840000;stroke-width:60;stroke-linecap:round;stroke-linejoin:round;stroke-opacity:1"
     id="g2740"
     transform="translate(-7510,-7570)">
    <text
       x="8440"
       y="8500"
       textLength="770"
       font-size="660px"
       lengthAdjust="spacingAndGlyphs"
       text-anchor="end"
       opacity="0"
       id="text2734">I0</text>
    <path
       d="M 7810,8470 V 7970"
       id="path2736" />
    <path
       d="m 8140,7970 h 50 l 50,30 20,20 30,50 20,90 v 120 l -20,100 -30,40 -20,30 -50,20 h -50 l -40,-20 -30,-30 -20,-40 -30,-100 v -120 l 30,-90 20,-50 30,-20 40,-30"
       id="path2738" />
  </g>
  <g
     style="fill:#840000;fill-opacity:0;stroke:#840000;stroke-width:100;stroke-linecap:round;stroke-linejoin:round;stroke-opacity:1"
     id="g2744"
     transform="translate(-7510,-7570)">
    <path
       style="fill:none;fill-opacity:0;stroke:#840000;stroke-width:100;stroke-linecap:round;stroke-linejoin:round;stroke-opacity:1"
       d="m 8750,8250 -250,-440 h -940 v 440 440 h 940 z"
       id="path2742" />
  </g>
  <g
     style="fill:#840000;fill-opacity:0;stroke:#840000;stroke-width:60;stroke-linecap:round;stroke-linejoin:round;stroke-opacity:1"
     id="g2754"
     transform="translate(-7510,-7570)">
    <text
       x="8440"
       y="9500"
       textLength="770"
       font-size="660px"
       lengthAdjust="spacingAndGlyphs"
       text-anchor="end"
       opacity="0"
       id="text2746">I1</text>
    <path
       d="M 7810,9470 V 8970"
       id="path2748" />
    <path
       d="M 8310,9470 H 8020"
       id="path2750" />
    <path
       d="m 8170,9470 v -500 l -50,70 -50,50 -50,20"
       id="path2752" />
  </g>
  <g
     style="fill:#840000;fill-opacity:0;stroke:#840000;stroke-width:100;stroke-linecap:round;stroke-linejoin:round;stroke-opacity:1"
     id="g2758"
     transform="translate(-7510,-7570)">
    <path
       style="fill:none;fill-opacity:0;stroke:#840000;stroke-width:100;stroke-linecap:round;stroke-linejoin:round;stroke-opacity:1"
       d="m 8750,9250 -250,-440 h -940 v 440 440 h 940 z"
       id="path2756" />
  </g>
  <g
     style="fill:#840000;fill-opacity:0;stroke:#840000;stroke-width:60;stroke-linecap:round;stroke-linejoin:round;stroke-opacity:1"
     id="g2766"
     transform="translate(-7510,-7570)">
    <text
       x="8190"
       y="10500"
       textLength="490"
       font-size="660px"
       lengthAdjust="spacingAndGlyphs"
       text-anchor="end"
       opacity="0"
       id="text2760">A</text>
    <path
       d="m 7820,10330 h 240"
       id="path2762" />
    <path
       d="m 7770,10470 170,-500 170,500"
       id="path2764" />
  </g>
  <g
     style="fill:#840000;fill-opacity:0;stroke:#840000;stroke-width:100;stroke-linecap:round;stroke-linejoin:round;stroke-opacity:1"
     id="g2770"
     transform="translate(-7510,-7570)">
    <path
       style="fill:none;fill-opacity:0;stroke:#840000;stroke-width:100;stroke-linecap:round;stroke-linejoin:round;stroke-opacity:1"
       d="m 8500,10250 -250,-440 h -660 v 440 440 h 660 z"
       id="path2768" />
  </g>
  <g
     style="fill:#840000;fill-opacity:0;stroke:#840000;stroke-width:60;stroke-linecap:round;stroke-linejoin:round;stroke-opacity:1"
     id="g2790"
     transform="translate(-7510,-7570)">
    <text
       x="28060"
       y="12000"
       textLength="580"
       font-size="660px"
       lengthAdjust="spacingAndGlyphs"
       text-anchor="start"
       opacity="0"
       id="text2784">Q</text>
    <path
       d="m 28540,12020 -50,-20 -50,-50 -70,-70 -50,-30 h -40"
       id="path2786" />
    <path
       d="m 28300,11970 -50,-20 -50,-50 -20,-100 v -160 l 20,-100 50,-40 50,-30 h 90 l 50,30 50,40 20,100 v 160 l -20,100 -50,50 -50,20 h -90"
       id="path2788" />
  </g>
  <g
     style="fill:#840000;fill-opacity:0;stroke:#840000;stroke-width:100;stroke-linecap:round;stroke-linejoin:round;stroke-opacity:1"
     id="g2794"
     transform="translate(-7510,-7570)">
    <path
       style="fill:none;fill-opacity:0;stroke:#840000;stroke-width:100;stroke-linecap:round;stroke-linejoin:round;stroke-opacity:1"
       d="m 27750,11750 250,440 h 750 v -440 -440 h -750 z"
       id="path2792" />
  </g>
  <g
     style="fill:#008400;fill-opacity:1;stroke:#008400;stroke-width:100;stroke-linecap:round;stroke-linejoin:round;stroke-opacity:1"
     id="g2864"
     transform="translate(-7510,-7570)">
    <circle
       cx="9000"
       cy="10250"
       r="200"
       id="circle2862" />
  </g>
  <g
     style="fill:#008400;fill-opacity:1;stroke:#008400;stroke-width:100;stroke-linecap:round;stroke-linejoin:round;stroke-opacity:1"
     id="g2876"
     transform="translate(-7510,-7570)">
    <circle
       cx="9000"
       cy="14000"
       r="200"
       id="circle2874" />
  </g>
</svg>
